<svg width="64" height="64" viewBox="0 0 64 64" fill="none" xmlns="http://www.w3.org/2000/svg">
<path d="M32.0751 2C31.6688 2 31.3016 2.24609 31.1493 2.625L23.2782 21.9102L1.90711 23.8555C1.51258 23.8906 1.17273 24.1602 1.04773 24.543C0.926641 24.9258 1.03992 25.3398 1.3407 25.6055L17.4735 39.7109L12.5165 59.9688C12.4188 60.3633 12.5751 60.7773 12.8993 61.0156C13.2313 61.25 13.6688 61.2695 14.0126 61.0547L32.0751 49.8789L50.1376 61.0547C50.2977 61.1562 50.4813 61.207 50.6649 61.207C50.868 61.207 51.0751 61.1445 51.2509 61.0156C51.579 60.7773 51.7313 60.3633 51.6337 59.9688L46.6805 39.7109L62.8095 25.6055C63.1102 25.3398 63.2235 24.9258 63.1024 24.543C62.9774 24.1602 62.6376 23.8906 62.243 23.8555L40.868 21.9102L33.0009 2.625C32.8485 2.24609 32.4813 2 32.0751 2ZM32.0751 5.64844L39.247 23.2305C39.3915 23.5781 39.7118 23.8125 40.0829 23.8477L59.7313 25.6328L44.9032 38.6016C44.6259 38.8477 44.5009 39.2305 44.5907 39.5938L49.1141 58.0703L32.6024 47.8516C32.4384 47.75 32.2587 47.7031 32.0751 47.7031C31.8915 47.7031 31.7079 47.75 31.5477 47.8516L15.0399 58.0703L19.5595 39.5938C19.6493 39.2305 19.5282 38.8477 19.247 38.6016L4.41492 25.6328L24.0673 23.8477C24.4384 23.8125 24.7587 23.5781 24.8993 23.2305L32.0751 5.64844ZM32.1493 22.8516C31.5946 22.8516 31.1493 23.2969 31.1493 23.8516V31.8516H23.1493C22.5946 31.8516 22.1493 32.2969 22.1493 32.8516C22.1493 33.4062 22.5946 33.8516 23.1493 33.8516H31.1493V41.8516C31.1493 42.4062 31.5946 42.8516 32.1493 42.8516C32.704 42.8516 33.1493 42.4062 33.1493 41.8516V33.8516H41.1493C41.704 33.8516 42.1493 33.4062 42.1493 32.8516C42.1493 32.2969 41.704 31.8516 41.1493 31.8516H33.1493V23.8516C33.1493 23.2969 32.704 22.8516 32.1493 22.8516ZM4.1493 38.8516C3.59461 38.8516 3.1493 39.2969 3.1493 39.8516V41.8516C3.1493 42.4062 3.59461 42.8516 4.1493 42.8516C4.70398 42.8516 5.1493 42.4062 5.1493 41.8516V39.8516C5.1493 39.2969 4.70398 38.8516 4.1493 38.8516ZM9.1493 38.8516C8.59461 38.8516 8.1493 39.2969 8.1493 39.8516V41.8516C8.1493 42.4062 8.59461 42.8516 9.1493 42.8516C9.70399 42.8516 10.1493 42.4062 10.1493 41.8516V39.8516C10.1493 39.2969 9.70399 38.8516 9.1493 38.8516ZM14.1493 38.8516C13.5946 38.8516 13.1493 39.2969 13.1493 39.8516V41.8516C13.1493 42.4062 13.5946 42.8516 14.1493 42.8516C14.704 42.8516 15.1493 42.4062 15.1493 41.8516V39.8516C15.1493 39.2969 14.704 38.8516 14.1493 38.8516ZM50.1493 38.8516C49.5946 38.8516 49.1493 39.2969 49.1493 39.8516V41.8516C49.1493 42.4062 49.5946 42.8516 50.1493 42.8516C50.704 42.8516 51.1493 42.4062 51.1493 41.8516V39.8516C51.1493 39.2969 50.704 38.8516 50.1493 38.8516ZM55.1493 38.8516C54.5946 38.8516 54.1493 39.2969 54.1493 39.8516V41.8516C54.1493 42.4062 54.5946 42.8516 55.1493 42.8516C55.704 42.8516 56.1493 42.4062 56.1493 41.8516V39.8516C56.1493 39.2969 55.704 38.8516 55.1493 38.8516ZM60.1493 38.8516C59.5946 38.8516 59.1493 39.2969 59.1493 39.8516V41.8516C59.1493 42.4062 59.5946 42.8516 60.1493 42.8516C60.704 42.8516 61.1493 42.4062 61.1493 41.8516V39.8516C61.1493 39.2969 60.704 38.8516 60.1493 38.8516Z" fill="#2128AF" fill-opacity="0.5"/>
</svg>
