<svg width="70" height="70" viewBox="0 0 70 70" fill="none" xmlns="http://www.w3.org/2000/svg">
<path d="M47.2591 7.00431C46.9512 7.0115 46.6413 7.02773 46.3299 7.05329C39.0222 7.65279 33.0746 13.5172 32.3333 20.8096C32.0903 23.2002 32.4667 25.4675 33.2167 27.548L9.90915 50.8539C7.36362 53.3995 7.36362 57.5515 9.90915 60.097C12.4547 62.6425 16.6067 62.6425 19.1522 60.097L42.4645 36.7847C44.545 37.5332 46.8105 37.9104 49.2013 37.6649C56.4877 36.9186 62.3462 30.9741 62.9465 23.6715C63.1511 21.1842 62.7615 18.7988 61.902 16.6551C61.8417 16.5053 61.7381 16.3769 61.6043 16.2866C61.4705 16.1962 61.3128 16.1478 61.1514 16.1478H61.1498C60.9352 16.1479 60.7294 16.2331 60.5777 16.3849L51.9841 24.9768C51.1418 25.8192 49.8018 25.8192 48.9595 24.9768L45.0309 21.0467C44.1886 20.2044 44.1886 18.8659 45.0309 18.0236L53.6261 9.42688C53.7778 9.27516 53.8631 9.06939 53.8631 8.85481C53.8634 8.6931 53.8152 8.535 53.7248 8.40093C53.6344 8.26685 53.5059 8.16294 53.3558 8.1026C51.4778 7.34749 49.4147 6.95391 47.2591 7.00431ZM47.7758 8.63199C49.0709 8.66882 50.3109 8.90981 51.5022 9.26253L43.8852 16.8779C42.4248 18.3383 42.4248 20.7304 43.8852 22.1908L47.8154 26.121C49.2758 27.5814 51.6679 27.5814 53.1283 26.121L60.7405 18.5103C61.208 20.0955 61.4788 21.7662 61.3331 23.5388C60.7975 30.0541 55.5425 35.3883 49.0369 36.0546C46.7124 36.2933 44.5096 35.9339 42.5198 35.1365C42.3727 35.0773 42.2114 35.0627 42.0561 35.0945C41.9007 35.1262 41.7581 35.2029 41.6459 35.315L18.0081 58.9513C16.0809 60.8785 12.9805 60.8785 11.0533 58.9513C9.12609 57.0241 9.12609 53.9253 11.0533 51.9981L34.688 28.365C34.8001 28.2528 34.8768 28.1102 34.9085 27.9548C34.9403 27.7995 34.9257 27.6382 34.8665 27.4911C34.0675 25.5012 33.7057 23.2987 33.9421 20.974C34.6038 14.4631 39.9428 9.20162 46.4626 8.66676C46.9069 8.63029 47.3442 8.61972 47.7758 8.63199ZM58.9879 24.7951C58.9016 24.8009 58.8193 24.8343 58.7534 24.8904C58.6874 24.9464 58.6411 25.0221 58.6213 25.1064C58.5552 25.3695 58.4796 25.6286 58.3938 25.8855C58.3736 25.9366 58.3641 25.9913 58.3658 26.0462C58.3675 26.1011 58.3804 26.1551 58.4036 26.2048C58.4268 26.2546 58.4599 26.2991 58.5009 26.3357C58.5419 26.3722 58.5899 26.4001 58.642 26.4175C58.6941 26.4349 58.7492 26.4415 58.804 26.4369C58.8587 26.4323 58.9119 26.4166 58.9604 26.3908C59.0089 26.365 59.0516 26.3296 59.086 26.2867C59.1203 26.2439 59.1456 26.1945 59.1602 26.1415C59.2523 25.866 59.3353 25.5862 59.4067 25.3024C59.4232 25.2402 59.4246 25.175 59.4109 25.1122C59.3971 25.0494 59.3686 24.9908 59.3276 24.9412C59.2867 24.8916 59.2345 24.8525 59.1754 24.8271C59.1164 24.8017 59.0521 24.7907 58.9879 24.7951ZM58.0824 27.2224C58.0099 27.2254 57.9395 27.2477 57.8787 27.2872C57.8178 27.3267 57.7686 27.3818 57.7364 27.4468C57.4558 27.9938 57.1327 28.5156 56.7692 29.0097C56.7369 29.0524 56.7134 29.1011 56.7001 29.1529C56.6868 29.2048 56.6839 29.2588 56.6915 29.3117C56.6992 29.3647 56.7173 29.4157 56.7448 29.4616C56.7723 29.5075 56.8087 29.5475 56.8517 29.5793C56.8948 29.6111 56.9438 29.634 56.9958 29.6467C57.0478 29.6595 57.1018 29.6617 57.1546 29.6535C57.2075 29.6452 57.2582 29.6265 57.3038 29.5984C57.3494 29.5704 57.389 29.5336 57.4203 29.4901C57.8093 28.9615 58.1566 28.4024 58.457 27.8166C58.4904 27.7537 58.5067 27.683 58.5041 27.6117C58.5014 27.5405 58.48 27.4712 58.442 27.4109C58.404 27.3506 58.3507 27.3014 58.2876 27.2683C58.2244 27.2352 58.1537 27.2194 58.0824 27.2224ZM35.8874 29.6086C35.7822 29.612 35.6824 29.6562 35.6093 29.7319L34.8002 30.541C34.7613 30.5783 34.7303 30.6229 34.709 30.6723C34.6876 30.7218 34.6764 30.7749 34.6758 30.8287C34.6753 30.8826 34.6855 30.936 34.7058 30.9858C34.7261 31.0356 34.7562 31.0809 34.7943 31.1189C34.8323 31.157 34.8776 31.1871 34.9275 31.2074C34.9773 31.2278 35.0307 31.238 35.0845 31.2374C35.1383 31.2369 35.1915 31.2256 35.2409 31.2042C35.2903 31.1829 35.3349 31.1519 35.3722 31.1131L36.1813 30.304C36.2401 30.2472 36.2803 30.174 36.2966 30.0939C36.3129 30.0139 36.3046 29.9307 36.2728 29.8555C36.241 29.7803 36.1872 29.7164 36.1184 29.6723C36.0496 29.6283 35.9691 29.6061 35.8874 29.6086ZM55.7199 30.4098C55.6147 30.4103 55.5138 30.4516 55.4386 30.5252C53.6571 32.2317 51.3342 33.3762 48.792 33.6368C48.739 33.6422 48.6877 33.6579 48.6409 33.6832C48.5941 33.7084 48.5527 33.7426 48.519 33.7839C48.4854 33.8251 48.4603 33.8725 48.445 33.9235C48.4297 33.9745 48.4247 34.0279 48.4301 34.0808C48.4355 34.1338 48.4512 34.1851 48.4765 34.2319C48.5017 34.2788 48.5359 34.3202 48.5772 34.3538C48.6184 34.3874 48.6658 34.4125 48.7168 34.4278C48.7678 34.443 48.8212 34.4481 48.8741 34.4427C51.6056 34.1628 54.0933 32.9344 55.9981 31.1099C56.0574 31.0544 56.0987 30.9822 56.1165 30.9028C56.1343 30.8235 56.1277 30.7406 56.0977 30.6651C56.0676 30.5895 56.0155 30.5247 55.9482 30.4792C55.8808 30.4337 55.8012 30.4095 55.7199 30.4098ZM33.8646 31.6314C33.7594 31.6347 33.6596 31.679 33.5865 31.7547L32.3729 32.9667C32.334 33.004 32.303 33.0487 32.2817 33.0981C32.2603 33.1475 32.249 33.2007 32.2485 33.2545C32.2479 33.3083 32.2581 33.3617 32.2785 33.4115C32.2988 33.4613 32.3289 33.5066 32.367 33.5447C32.405 33.5827 32.4503 33.6128 32.5001 33.6332C32.55 33.6535 32.6034 33.6637 32.6572 33.6632C32.711 33.6626 32.7642 33.6513 32.8136 33.63C32.863 33.6086 32.9076 33.5776 32.9449 33.5388L34.1586 32.3267C34.2173 32.27 34.2575 32.1967 34.2738 32.1167C34.2902 32.0366 34.2819 31.9535 34.2501 31.8783C34.2183 31.803 34.1644 31.7392 34.0956 31.6951C34.0268 31.651 33.9463 31.6288 33.8646 31.6314ZM31.4373 34.0587C31.3323 34.0616 31.2326 34.1053 31.1592 34.1804L18.6181 46.7183C18.5793 46.7556 18.5483 46.8003 18.5269 46.8497C18.5056 46.8991 18.4943 46.9523 18.4937 47.0061C18.4932 47.0599 18.5034 47.1133 18.5237 47.1631C18.5441 47.213 18.5742 47.2582 18.6122 47.2963C18.6503 47.3343 18.6955 47.3644 18.7454 47.3848C18.7952 47.4051 18.8486 47.4153 18.9024 47.4148C18.9562 47.4142 19.0094 47.4029 19.0588 47.3816C19.1082 47.3602 19.1529 47.3292 19.1901 47.2904L31.7313 34.7525C31.7894 34.6956 31.8291 34.6225 31.8451 34.5427C31.8611 34.463 31.8527 34.3802 31.8209 34.3053C31.7892 34.2304 31.7356 34.1668 31.6672 34.1228C31.5988 34.0788 31.5186 34.0565 31.4373 34.0587ZM14.454 53.1185C13.1183 53.1185 12.0267 54.21 12.0267 55.5458C12.0267 56.8816 13.1183 57.9731 14.454 57.9731C15.7898 57.9731 16.8814 56.8816 16.8814 55.5458C16.8814 54.21 15.7898 53.1185 14.454 53.1185ZM14.454 53.9276C15.3525 53.9276 16.0723 54.6473 16.0723 55.5458C16.0723 56.4443 15.3525 57.164 14.454 57.164C13.5555 57.164 12.8358 56.4443 12.8358 55.5458C12.8358 54.6473 13.5555 53.9276 14.454 53.9276Z" fill="#2128AF" fill-opacity="0.5"/>
</svg>
