<svg width="70" height="70" viewBox="0 0 70 70" fill="none" xmlns="http://www.w3.org/2000/svg">
<path d="M5 13V21.75H13.75V13H5ZM6.75 14.75H12V20H6.75V14.75ZM19 14.75V16.5H64.5V14.75H19ZM8.5 16.5V18.25H10.25V16.5H8.5ZM19.875 18.25C19.3931 18.25 19 18.6431 19 19.125C19 19.6069 19.3931 20 19.875 20C20.3569 20 20.75 19.6069 20.75 19.125C20.75 18.6431 20.3569 18.25 19.875 18.25ZM23.375 18.25C22.8931 18.25 22.5 18.6431 22.5 19.125C22.5 19.6069 22.8931 20 23.375 20C23.8569 20 24.25 19.6069 24.25 19.125C24.25 18.6431 23.8569 18.25 23.375 18.25ZM26.875 18.25C26.3931 18.25 26 18.6431 26 19.125C26 19.6069 26.3931 20 26.875 20C27.3569 20 27.75 19.6069 27.75 19.125C27.75 18.6431 27.3569 18.25 26.875 18.25ZM30.375 18.25C29.8931 18.25 29.5 18.6431 29.5 19.125C29.5 19.6069 29.8931 20 30.375 20C30.8569 20 31.25 19.6069 31.25 19.125C31.25 18.6431 30.8569 18.25 30.375 18.25ZM33.875 18.25C33.3931 18.25 33 18.6431 33 19.125C33 19.6069 33.3931 20 33.875 20C34.3569 20 34.75 19.6069 34.75 19.125C34.75 18.6431 34.3569 18.25 33.875 18.25ZM37.375 18.25C36.8931 18.25 36.5 18.6431 36.5 19.125C36.5 19.6069 36.8931 20 37.375 20C37.8569 20 38.25 19.6069 38.25 19.125C38.25 18.6431 37.8569 18.25 37.375 18.25ZM40.875 18.25C40.3931 18.25 40 18.6431 40 19.125C40 19.6069 40.3931 20 40.875 20C41.3569 20 41.75 19.6069 41.75 19.125C41.75 18.6431 41.3569 18.25 40.875 18.25ZM44.375 18.25C43.8931 18.25 43.5 18.6431 43.5 19.125C43.5 19.6069 43.8931 20 44.375 20C44.8569 20 45.25 19.6069 45.25 19.125C45.25 18.6431 44.8569 18.25 44.375 18.25ZM47.875 18.25C47.3931 18.25 47 18.6431 47 19.125C47 19.6069 47.3931 20 47.875 20C48.3569 20 48.75 19.6069 48.75 19.125C48.75 18.6431 48.3569 18.25 47.875 18.25ZM51.375 18.25C50.8931 18.25 50.5 18.6431 50.5 19.125C50.5 19.6069 50.8931 20 51.375 20C51.8569 20 52.25 19.6069 52.25 19.125C52.25 18.6431 51.8569 18.25 51.375 18.25ZM54.875 18.25C54.3931 18.25 54 18.6431 54 19.125C54 19.6069 54.3931 20 54.875 20C55.3569 20 55.75 19.6069 55.75 19.125C55.75 18.6431 55.3569 18.25 54.875 18.25ZM58.375 18.25C57.8931 18.25 57.5 18.6431 57.5 19.125C57.5 19.6069 57.8931 20 58.375 20C58.8569 20 59.25 19.6069 59.25 19.125C59.25 18.6431 58.8569 18.25 58.375 18.25ZM5 30.5V39.25H13.75V30.5H5ZM6.75 32.25H12V37.5H6.75V32.25ZM19 32.25V34H64.5V32.25H19ZM8.5 34V35.75H10.25V34H8.5ZM19.875 35.75C19.3931 35.75 19 36.1431 19 36.625C19 37.1069 19.3931 37.5 19.875 37.5C20.3569 37.5 20.75 37.1069 20.75 36.625C20.75 36.1431 20.3569 35.75 19.875 35.75ZM23.375 35.75C22.8931 35.75 22.5 36.1431 22.5 36.625C22.5 37.1069 22.8931 37.5 23.375 37.5C23.8569 37.5 24.25 37.1069 24.25 36.625C24.25 36.1431 23.8569 35.75 23.375 35.75ZM26.875 35.75C26.3931 35.75 26 36.1431 26 36.625C26 37.1069 26.3931 37.5 26.875 37.5C27.3569 37.5 27.75 37.1069 27.75 36.625C27.75 36.1431 27.3569 35.75 26.875 35.75ZM30.375 35.75C29.8931 35.75 29.5 36.1431 29.5 36.625C29.5 37.1069 29.8931 37.5 30.375 37.5C30.8569 37.5 31.25 37.1069 31.25 36.625C31.25 36.1431 30.8569 35.75 30.375 35.75ZM33.875 35.75C33.3931 35.75 33 36.1431 33 36.625C33 37.1069 33.3931 37.5 33.875 37.5C34.3569 37.5 34.75 37.1069 34.75 36.625C34.75 36.1431 34.3569 35.75 33.875 35.75ZM37.375 35.75C36.8931 35.75 36.5 36.1431 36.5 36.625C36.5 37.1069 36.8931 37.5 37.375 37.5C37.8569 37.5 38.25 37.1069 38.25 36.625C38.25 36.1431 37.8569 35.75 37.375 35.75ZM40.875 35.75C40.3931 35.75 40 36.1431 40 36.625C40 37.1069 40.3931 37.5 40.875 37.5C41.3569 37.5 41.75 37.1069 41.75 36.625C41.75 36.1431 41.3569 35.75 40.875 35.75ZM44.375 35.75C43.8931 35.75 43.5 36.1431 43.5 36.625C43.5 37.1069 43.8931 37.5 44.375 37.5C44.8569 37.5 45.25 37.1069 45.25 36.625C45.25 36.1431 44.8569 35.75 44.375 35.75ZM47.875 35.75C47.3931 35.75 47 36.1431 47 36.625C47 37.1069 47.3931 37.5 47.875 37.5C48.3569 37.5 48.75 37.1069 48.75 36.625C48.75 36.1431 48.3569 35.75 47.875 35.75ZM51.375 35.75C50.8931 35.75 50.5 36.1431 50.5 36.625C50.5 37.1069 50.8931 37.5 51.375 37.5C51.8569 37.5 52.25 37.1069 52.25 36.625C52.25 36.1431 51.8569 35.75 51.375 35.75ZM54.875 35.75C54.3931 35.75 54 36.1431 54 36.625C54 37.1069 54.3931 37.5 54.875 37.5C55.3569 37.5 55.75 37.1069 55.75 36.625C55.75 36.1431 55.3569 35.75 54.875 35.75ZM58.375 35.75C57.8931 35.75 57.5 36.1431 57.5 36.625C57.5 37.1069 57.8931 37.5 58.375 37.5C58.8569 37.5 59.25 37.1069 59.25 36.625C59.25 36.1431 58.8569 35.75 58.375 35.75ZM5 48V56.75H13.75V48H5ZM6.75 49.75H12V55H6.75V49.75ZM19 49.75V51.5H64.5V49.75H19ZM19.875 53.25C19.3931 53.25 19 53.6431 19 54.125C19 54.6069 19.3931 55 19.875 55C20.3569 55 20.75 54.6069 20.75 54.125C20.75 53.6431 20.3569 53.25 19.875 53.25ZM23.375 53.25C22.8931 53.25 22.5 53.6431 22.5 54.125C22.5 54.6069 22.8931 55 23.375 55C23.8569 55 24.25 54.6069 24.25 54.125C24.25 53.6431 23.8569 53.25 23.375 53.25ZM26.875 53.25C26.3931 53.25 26 53.6431 26 54.125C26 54.6069 26.3931 55 26.875 55C27.3569 55 27.75 54.6069 27.75 54.125C27.75 53.6431 27.3569 53.25 26.875 53.25ZM30.375 53.25C29.8931 53.25 29.5 53.6431 29.5 54.125C29.5 54.6069 29.8931 55 30.375 55C30.8569 55 31.25 54.6069 31.25 54.125C31.25 53.6431 30.8569 53.25 30.375 53.25ZM33.875 53.25C33.3931 53.25 33 53.6431 33 54.125C33 54.6069 33.3931 55 33.875 55C34.3569 55 34.75 54.6069 34.75 54.125C34.75 53.6431 34.3569 53.25 33.875 53.25ZM37.375 53.25C36.8931 53.25 36.5 53.6431 36.5 54.125C36.5 54.6069 36.8931 55 37.375 55C37.8569 55 38.25 54.6069 38.25 54.125C38.25 53.6431 37.8569 53.25 37.375 53.25ZM40.875 53.25C40.3931 53.25 40 53.6431 40 54.125C40 54.6069 40.3931 55 40.875 55C41.3569 55 41.75 54.6069 41.75 54.125C41.75 53.6431 41.3569 53.25 40.875 53.25ZM44.375 53.25C43.8931 53.25 43.5 53.6431 43.5 54.125C43.5 54.6069 43.8931 55 44.375 55C44.8569 55 45.25 54.6069 45.25 54.125C45.25 53.6431 44.8569 53.25 44.375 53.25ZM47.875 53.25C47.3931 53.25 47 53.6431 47 54.125C47 54.6069 47.3931 55 47.875 55C48.3569 55 48.75 54.6069 48.75 54.125C48.75 53.6431 48.3569 53.25 47.875 53.25ZM51.375 53.25C50.8931 53.25 50.5 53.6431 50.5 54.125C50.5 54.6069 50.8931 55 51.375 55C51.8569 55 52.25 54.6069 52.25 54.125C52.25 53.6431 51.8569 53.25 51.375 53.25ZM54.875 53.25C54.3931 53.25 54 53.6431 54 54.125C54 54.6069 54.3931 55 54.875 55C55.3569 55 55.75 54.6069 55.75 54.125C55.75 53.6431 55.3569 53.25 54.875 53.25ZM58.375 53.25C57.8931 53.25 57.5 53.6431 57.5 54.125C57.5 54.6069 57.8931 55 58.375 55C58.8569 55 59.25 54.6069 59.25 54.125C59.25 53.6431 58.8569 53.25 58.375 53.25Z" fill="#2128AF" fill-opacity="0.5"/>
</svg>
