<svg width="60" height="60" viewBox="0 0 60 60" fill="none" xmlns="http://www.w3.org/2000/svg">
<path d="M46.8 2.40698C44.0343 2.40698 41.2677 3.45921 39.1617 5.56401L33.1617 11.564C31.9425 12.7844 31.0866 14.2292 30.5742 15.764C31.569 15.1832 32.651 14.7763 33.7898 14.5687C34.0958 14.1055 34.4541 13.6677 34.8609 13.2609L40.8609 7.26089C42.4989 5.62409 44.6484 4.80464 46.8 4.80464C48.9516 4.80464 51.101 5.62409 52.739 7.26089C56.0138 10.5357 56.0138 15.8642 52.739 19.139L46.739 25.139C43.463 28.4138 38.1345 28.4138 34.8609 25.139C34.1649 24.443 33.6316 23.6517 33.232 22.8093L31.4531 24.5859C31.9151 25.3887 32.4788 26.1495 33.164 26.8359C35.27 28.9407 38.0352 29.9929 40.8 29.9929C43.5648 29.9929 46.3299 28.9407 48.4359 26.8359L54.4359 20.8359C58.6467 16.6239 58.6467 9.77601 54.4359 5.56401C52.3299 3.45921 49.5657 2.40698 46.8 2.40698ZM35.6015 16.8C33.5723 16.8 31.6614 17.5902 30.225 19.0242L19.0265 30.225C16.0625 33.189 16.0625 38.0094 19.0265 40.9734C20.5073 42.4542 22.4532 43.1953 24.4008 43.1953C24.498 43.1953 24.5965 43.1848 24.6937 43.1812C25.0321 42.3976 25.1991 41.5603 25.1883 40.7203C23.6067 40.9615 21.939 40.4909 20.7234 39.2765C18.6966 37.2497 18.6966 33.9486 20.7234 31.9218L31.9219 20.7234C32.9047 19.7418 34.2131 19.2 35.6015 19.2C36.9899 19.2 38.2949 19.7406 39.2765 20.7234C40.2581 21.7062 40.8 23.01 40.8 24.3984C40.8 24.6672 40.7622 24.9278 40.7226 25.1882C40.749 25.1882 40.7748 25.1953 40.8 25.1953C41.6364 25.1953 42.4419 25.0176 43.1859 24.696C43.1895 24.5964 43.2 24.498 43.2 24.3984C43.2 22.3692 42.4086 20.4629 40.9734 19.0265C39.537 17.5913 37.6307 16.8 35.6015 16.8ZM15.7476 30.5929C14.22 31.1053 12.7796 31.9484 11.564 33.164L5.56405 39.164C1.35324 43.376 1.35324 50.2262 5.56405 54.4382C7.67004 56.543 10.4352 57.5953 13.2 57.5953C15.9648 57.5953 18.7299 56.543 20.8359 54.4382L26.8359 48.4382C31.0467 44.225 31.0467 37.376 26.8359 33.164C26.1495 32.4788 25.3887 31.9151 24.5859 31.4531L22.814 33.2273C23.6552 33.6269 24.4442 34.1661 25.139 34.8609C28.4138 38.1357 28.4138 43.4642 25.139 46.739L19.139 52.739C15.863 56.0138 10.5345 56.0138 7.26092 52.739C3.98612 49.4642 3.98612 44.1357 7.26092 40.8609L13.2609 34.8609C13.6713 34.4517 14.1113 34.0923 14.5781 33.7851C14.7797 32.6763 15.1692 31.5949 15.7476 30.5929ZM35.9039 31.4484L31.4367 35.9156C31.7787 36.7748 32.0308 37.6628 32.1844 38.564L38.5523 32.1937C37.6415 32.0377 36.7535 31.7904 35.9039 31.4484Z" fill="#2128AF" fill-opacity="0.5"/>
</svg>
