<svg width="207" height="47" viewBox="0 0 207 47" fill="none" xmlns="http://www.w3.org/2000/svg">
<path d="M74.4791 30.6861C73.0348 30.6861 71.7083 30.3471 70.4998 29.6692C69.2912 28.9912 68.3332 28.0553 67.6258 26.8615C66.9183 25.653 66.5646 24.2896 66.5646 22.7716C66.5646 21.2683 66.9183 19.9197 67.6258 18.7259C68.3332 17.5173 69.2912 16.5741 70.4998 15.8961C71.7083 15.2181 73.0348 14.8792 74.4791 14.8792C75.9383 14.8792 77.2647 15.2181 78.4585 15.8961C79.6671 16.5741 80.6177 17.5173 81.3104 18.7259C82.0179 19.9197 82.3716 21.2683 82.3716 22.7716C82.3716 24.2896 82.0179 25.653 81.3104 26.8615C80.6177 28.0553 79.6671 28.9912 78.4585 29.6692C77.25 30.3471 75.9235 30.6861 74.4791 30.6861ZM74.4791 27.9227C75.4077 27.9227 76.2257 27.7163 76.9331 27.3037C77.6405 26.8762 78.1932 26.272 78.5912 25.4908C78.9891 24.7097 79.1881 23.8033 79.1881 22.7716C79.1881 21.7399 78.9891 20.8408 78.5912 20.0745C78.1932 19.2933 77.6405 18.6964 76.9331 18.2837C76.2257 17.8711 75.4077 17.6647 74.4791 17.6647C73.5506 17.6647 72.7253 17.8711 72.0031 18.2837C71.2956 18.6964 70.743 19.2933 70.345 20.0745C69.9471 20.8408 69.7481 21.7399 69.7481 22.7716C69.7481 23.8033 69.9471 24.7097 70.345 25.4908C70.743 26.272 71.2956 26.8762 72.0031 27.3037C72.7253 27.7163 73.5506 27.9227 74.4791 27.9227Z" fill="white"/>
<path d="M90.0022 30.6861C88.9263 30.6861 87.9535 30.5019 87.084 30.1334C86.2291 29.765 85.5512 29.2344 85.0501 28.5417C84.549 27.849 84.291 27.031 84.2763 26.0877H87.5924C87.6367 26.7215 87.8577 27.2226 88.2557 27.5911C88.6684 27.9595 89.2284 28.1437 89.9359 28.1437C90.658 28.1437 91.2255 27.9743 91.6381 27.6353C92.0508 27.2815 92.2572 26.8247 92.2572 26.2646C92.2572 25.8077 92.1171 25.4319 91.8371 25.1371C91.5571 24.8423 91.2034 24.6139 90.776 24.4518C90.3633 24.2749 89.7885 24.0833 89.0516 23.877C88.0493 23.5822 87.2314 23.2948 86.5976 23.0148C85.9786 22.72 85.4406 22.2852 84.9837 21.7104C84.5416 21.1209 84.3205 20.3397 84.3205 19.367C84.3205 18.4532 84.549 17.6573 85.0058 16.9794C85.4627 16.3014 86.1039 15.7856 86.9292 15.4318C87.7546 15.0634 88.6978 14.8792 89.759 14.8792C91.3507 14.8792 92.6404 15.2697 93.6278 16.0509C94.6301 16.8173 95.1827 17.8932 95.2859 19.2786H91.8813C91.8519 18.748 91.6234 18.3132 91.196 17.9742C90.7833 17.6205 90.2306 17.4436 89.5379 17.4436C88.9336 17.4436 88.4473 17.5984 88.0788 17.9079C87.7251 18.2174 87.5482 18.6669 87.5482 19.2565C87.5482 19.6691 87.6809 20.0155 87.9462 20.2955C88.2262 20.5608 88.5652 20.7819 88.9631 20.9588C89.3758 21.1209 89.9506 21.3125 90.6875 21.5336C91.6897 21.8283 92.5077 22.1231 93.1415 22.4179C93.7752 22.7126 94.3205 23.1548 94.7774 23.7443C95.2343 24.3339 95.4628 25.1076 95.4628 26.0656C95.4628 26.891 95.2491 27.6574 94.8217 28.3648C94.3942 29.0723 93.7679 29.6397 92.9425 30.0671C92.1171 30.4798 91.137 30.6861 90.0022 30.6861Z" fill="white"/>
<path d="M109.399 19.8755C109.399 20.7008 109.2 21.4746 108.802 22.1968C108.419 22.919 107.807 23.5011 106.967 23.9433C106.142 24.3854 105.095 24.6065 103.828 24.6065H101.241V30.5314H98.1461V15.1002H103.828C105.022 15.1002 106.039 15.3066 106.879 15.7192C107.719 16.1319 108.345 16.6993 108.758 17.4215C109.185 18.1437 109.399 18.9617 109.399 19.8755ZM103.695 22.1084C104.55 22.1084 105.184 21.9168 105.596 21.5336C106.009 21.1356 106.215 20.5829 106.215 19.8755C106.215 18.3722 105.375 17.6205 103.695 17.6205H101.241V22.1084H103.695Z" fill="white"/>
<path d="M114.691 20.185C115.089 19.5365 115.605 19.028 116.239 18.6596C116.887 18.2911 117.624 18.1069 118.45 18.1069V21.3567H117.632C116.659 21.3567 115.922 21.5851 115.421 22.042C114.935 22.4989 114.691 23.2948 114.691 24.4297V30.5314H111.596V18.2837H114.691V20.185Z" fill="white"/>
<path d="M125.973 30.7303C124.794 30.7303 123.733 30.4724 122.789 29.9566C121.846 29.426 121.102 28.6817 120.557 27.7237C120.026 26.7657 119.761 25.6603 119.761 24.4076C119.761 23.1548 120.033 22.0494 120.579 21.0914C121.139 20.1334 121.898 19.3965 122.856 18.8806C123.814 18.3501 124.882 18.0848 126.061 18.0848C127.24 18.0848 128.309 18.3501 129.267 18.8806C130.225 19.3965 130.977 20.1334 131.522 21.0914C132.082 22.0494 132.362 23.1548 132.362 24.4076C132.362 25.6603 132.075 26.7657 131.5 27.7237C130.94 28.6817 130.173 29.426 129.201 29.9566C128.243 30.4724 127.167 30.7303 125.973 30.7303ZM125.973 28.0332C126.533 28.0332 127.056 27.9006 127.543 27.6353C128.044 27.3552 128.442 26.9426 128.736 26.3972C129.031 25.8519 129.179 25.1887 129.179 24.4076C129.179 23.2432 128.869 22.3515 128.25 21.7325C127.646 21.0988 126.901 20.7819 126.017 20.7819C125.133 20.7819 124.389 21.0988 123.784 21.7325C123.195 22.3515 122.9 23.2432 122.9 24.4076C122.9 25.5719 123.187 26.4709 123.762 27.1047C124.352 27.7237 125.089 28.0332 125.973 28.0332Z" fill="white"/>
<path d="M139.43 18.0848C140.344 18.0848 141.147 18.269 141.839 18.6375C142.532 18.9912 143.077 19.4554 143.475 20.0302V18.2837H146.593V30.6198C146.593 31.7547 146.364 32.7642 145.907 33.6486C145.45 34.5476 144.765 35.255 143.851 35.7709C142.937 36.3015 141.832 36.5668 140.535 36.5668C138.796 36.5668 137.366 36.1615 136.246 35.3508C135.141 34.5402 134.514 33.4348 134.367 32.0347H137.44C137.602 32.5948 137.949 33.0369 138.479 33.3612C139.024 33.7001 139.68 33.8696 140.447 33.8696C141.346 33.8696 142.075 33.597 142.635 33.0516C143.195 32.5211 143.475 31.7104 143.475 30.6198V28.7185C143.077 29.2933 142.525 29.7723 141.817 30.1555C141.125 30.5387 140.329 30.7303 139.43 30.7303C138.398 30.7303 137.455 30.465 136.6 29.9345C135.745 29.4039 135.067 28.6596 134.566 27.7016C134.08 26.7289 133.836 25.6161 133.836 24.3633C133.836 23.1253 134.08 22.0273 134.566 21.0693C135.067 20.1113 135.738 19.3744 136.578 18.8585C137.433 18.3427 138.383 18.0848 139.43 18.0848ZM143.475 24.4076C143.475 23.6559 143.328 23.0148 143.033 22.4842C142.739 21.9389 142.341 21.5262 141.839 21.2462C141.338 20.9514 140.8 20.804 140.226 20.804C139.651 20.804 139.12 20.944 138.634 21.224C138.147 21.5041 137.75 21.9168 137.44 22.4621C137.145 22.9927 136.998 23.6264 136.998 24.3633C136.998 25.1003 137.145 25.7488 137.44 26.3088C137.75 26.8541 138.147 27.2742 138.634 27.5689C139.135 27.8637 139.666 28.0111 140.226 28.0111C140.8 28.0111 141.338 27.8711 141.839 27.5911C142.341 27.2963 142.739 26.8836 143.033 26.353C143.328 25.8077 143.475 25.1592 143.475 24.4076Z" fill="white"/>
<path d="M152.711 20.185C153.108 19.5365 153.624 19.028 154.258 18.6596C154.907 18.2911 155.644 18.1069 156.469 18.1069V21.3567H155.651C154.678 21.3567 153.941 21.5851 153.44 22.042C152.954 22.4989 152.711 23.2948 152.711 24.4297V30.5314H149.615V18.2837H152.711V20.185Z" fill="white"/>
<path d="M157.758 24.3633C157.758 23.1253 158.001 22.0273 158.487 21.0693C158.988 20.1113 159.659 19.3744 160.499 18.8585C161.354 18.3427 162.304 18.0848 163.351 18.0848C164.265 18.0848 165.061 18.269 165.739 18.6375C166.431 19.0059 166.984 19.4702 167.397 20.0302V18.2837H170.514V30.5314H167.397V28.7407C166.999 29.3155 166.446 29.7945 165.739 30.1777C165.046 30.5461 164.243 30.7303 163.329 30.7303C162.297 30.7303 161.354 30.465 160.499 29.9345C159.659 29.4039 158.988 28.6596 158.487 27.7016C158.001 26.7289 157.758 25.6161 157.758 24.3633ZM167.397 24.4076C167.397 23.6559 167.249 23.0148 166.954 22.4842C166.66 21.9389 166.262 21.5262 165.761 21.2462C165.26 20.9514 164.722 20.804 164.147 20.804C163.572 20.804 163.041 20.944 162.555 21.224C162.069 21.5041 161.671 21.9168 161.361 22.4621C161.066 22.9927 160.919 23.6264 160.919 24.3633C160.919 25.1003 161.066 25.7488 161.361 26.3088C161.671 26.8541 162.069 27.2742 162.555 27.5689C163.056 27.8637 163.587 28.0111 164.147 28.0111C164.722 28.0111 165.26 27.8711 165.761 27.5911C166.262 27.2963 166.66 26.8836 166.954 26.353C167.249 25.8077 167.397 25.1592 167.397 24.4076Z" fill="white"/>
<path d="M188.747 18.1069C190.25 18.1069 191.459 18.5711 192.372 19.4997C193.301 20.4134 193.765 21.6957 193.765 23.3464V30.5314H190.67V23.7664C190.67 22.8084 190.427 22.0789 189.941 21.5778C189.454 21.0619 188.791 20.804 187.951 20.804C187.111 20.804 186.44 21.0619 185.939 21.5778C185.453 22.0789 185.21 22.8084 185.21 23.7664V30.5314H182.114V23.7664C182.114 22.8084 181.871 22.0789 181.385 21.5778C180.899 21.0619 180.235 20.804 179.395 20.804C178.54 20.804 177.862 21.0619 177.361 21.5778C176.875 22.0789 176.632 22.8084 176.632 23.7664V30.5314H173.537V18.2837H176.632V19.7649C177.03 19.2491 177.538 18.8438 178.157 18.549C178.791 18.2543 179.484 18.1069 180.235 18.1069C181.193 18.1069 182.048 18.3132 182.8 18.7259C183.551 19.1238 184.134 19.6986 184.546 20.4503C184.944 19.7428 185.519 19.1754 186.271 18.748C187.037 18.3206 187.862 18.1069 188.747 18.1069Z" fill="white"/>
<path d="M201.389 30.7303C200.387 30.7303 199.488 30.5535 198.692 30.1998C197.896 29.8313 197.262 29.3376 196.791 28.7185C196.334 28.0995 196.083 27.4142 196.039 26.6625H199.156C199.215 27.1342 199.444 27.5247 199.842 27.8342C200.254 28.1437 200.763 28.2985 201.367 28.2985C201.956 28.2985 202.413 28.1806 202.738 27.9448C203.077 27.709 203.246 27.4068 203.246 27.0384C203.246 26.6404 203.04 26.3457 202.627 26.1541C202.229 25.9477 201.588 25.7266 200.704 25.4908C199.79 25.2698 199.038 25.0413 198.449 24.8055C197.874 24.5697 197.373 24.2086 196.945 23.7222C196.533 23.2358 196.326 22.58 196.326 21.7546C196.326 21.0767 196.518 20.4577 196.901 19.8976C197.299 19.3375 197.859 18.8954 198.581 18.5711C199.318 18.2469 200.18 18.0848 201.168 18.0848C202.627 18.0848 203.791 18.4532 204.661 19.1901C205.531 19.9123 206.01 20.8924 206.098 22.1305H203.136C203.091 21.6441 202.885 21.2609 202.517 20.9809C202.163 20.6861 201.684 20.5387 201.08 20.5387C200.519 20.5387 200.085 20.6419 199.775 20.8482C199.48 21.0546 199.333 21.342 199.333 21.7104C199.333 22.1231 199.539 22.44 199.952 22.661C200.365 22.8674 201.006 23.0811 201.875 23.3022C202.76 23.5232 203.489 23.7517 204.064 23.9875C204.639 24.2233 205.133 24.5918 205.545 25.0929C205.973 25.5793 206.194 26.2277 206.209 27.0384C206.209 27.7458 206.01 28.3796 205.612 28.9396C205.228 29.4997 204.668 29.9418 203.931 30.2661C203.209 30.5756 202.362 30.7303 201.389 30.7303Z" fill="white"/>
<path d="M7.092 8.56258C10.2099 6.43562 13.6663 5.08209 17.1951 4.81622C25.3162 4.26031 32.2047 9.81943 32.4706 17.6989C32.5028 18.3434 32.4786 18.9799 32.3981 19.6083C31.963 19.1088 31.4796 18.6334 30.9479 18.1823C25.1229 13.1307 16.5425 13.1307 10.6933 18.2548C3.90155 24.1523 4.04657 32.6601 8.08298 39.2344C9.24314 41.1197 10.7417 42.8116 12.4578 44.2618C6.10103 40.8538 1.36369 34.5696 0.25187 26.8835C-0.545743 21.4694 0.590248 16.2245 3.10394 11.8255C4.28827 10.6654 5.61763 9.57773 7.092 8.56258Z" fill="#0077D8"/>
<path d="M44.6523 18.1099C44.6765 26.8595 40.4225 35.8266 30.5611 36.0199C27.8783 36.0199 25.147 35.174 22.9959 33.6271C23.8177 33.4338 24.6234 33.1679 25.4129 32.8295C27.3224 32.056 29.0626 30.8717 30.5611 29.3732C31.9872 27.923 33.1715 26.2069 33.9933 24.2249C34.8151 22.243 35.1776 20.1644 35.1776 18.1341C35.1776 12.8892 32.6639 8.12766 28.3375 5.13057C23.1651 1.5534 17.4851 1.19085 12.216 2.88276C14.6089 1.57757 17.2676 0.659104 20.1197 0.248212C30.0777 -1.20199 39.4557 3.82539 44.048 12.1157C44.4348 13.9768 44.6523 15.9588 44.6523 18.1099Z" fill="#737AFE"/>
<path d="M23.1408 46.9931C18.0168 45.4462 13.1344 42.3283 10.4999 38.0018C6.31845 31.1134 7.47861 21.9771 15.7448 18.4482C13.9804 24.104 15.1164 29.8807 19.3219 34.0621C20.7722 35.5123 22.4882 36.6725 24.4943 37.4943C26.4763 38.3161 28.5308 38.7028 30.561 38.7028C32.6638 38.6786 34.7425 38.2677 36.6519 37.4701C38.6338 36.6483 40.3741 35.464 41.8001 34.0138C44.6764 31.1375 46.3199 26.932 46.9725 22.7505C47.3834 34.5455 38.8272 45.0112 26.863 46.7514C25.6062 46.9448 24.3654 47.0253 23.1408 46.9931Z" fill="white"/>
</svg>
