<svg width="150" height="148" viewBox="0 0 150 148" fill="none" xmlns="http://www.w3.org/2000/svg">
<path opacity="0.2" d="M24.52 101.758C23.2532 100.495 21.1994 100.495 19.9326 101.758C18.6658 103.022 18.6658 105.072 19.9326 106.335C21.1994 107.599 23.2532 107.599 24.52 106.335C25.7868 105.072 25.7868 103.022 24.52 101.758Z" fill="#AEBED2" stroke="#AEBED2" stroke-width="0.3"/>
<path opacity="0.2" d="M128.329 101.758C127.062 100.495 125.009 100.495 123.742 101.758C122.475 103.022 122.475 105.072 123.742 106.335C125.009 107.599 127.062 107.599 128.329 106.335C129.596 105.072 129.596 103.022 128.329 101.758Z" fill="#AEBED2" stroke="#AEBED2" stroke-width="0.3"/>
<path opacity="0.2" d="M42.1194 69.403C40.8527 68.1391 38.7988 68.1391 37.5321 69.403C36.2653 70.6669 36.2653 72.716 37.5321 73.9799C38.7988 75.2438 40.8527 75.2438 42.1194 73.9799C43.3862 72.716 43.3862 70.6669 42.1194 69.403Z" fill="#AEBED2" stroke="#AEBED2" stroke-width="0.3"/>
<path opacity="0.2" d="M110.729 69.403C109.462 68.1391 107.408 68.1391 106.142 69.403C104.875 70.6669 104.875 72.716 106.142 73.9799C107.408 75.2438 109.462 75.2438 110.729 73.9799C111.996 72.716 111.996 70.6669 110.729 69.403Z" fill="#AEBED2" stroke="#AEBED2" stroke-width="0.3"/>
<g filter="url(#filter0_d_1_47)">
<path d="M76.4819 60.5255C75.3236 59.3698 73.4456 59.3698 72.2874 60.5255C71.1291 61.6811 71.1291 63.5548 72.2874 64.7104C73.4456 65.8661 75.3236 65.8661 76.4819 64.7104C77.6402 63.5548 77.6402 61.6811 76.4819 60.5255Z" fill="#AEBED2"/>
<path d="M77.1366 59.8722C75.6167 58.3558 73.1525 58.3558 71.6326 59.8722C70.1128 61.3886 70.1128 63.8472 71.6326 65.3637C73.1525 66.8801 75.6167 66.8801 77.1366 65.3637C78.6565 63.8472 78.6565 61.3886 77.1366 59.8722Z" stroke="#AEBED2"/>
</g>
<g filter="url(#filter1_d_1_47)">
<path d="M101.439 101.955C100.28 100.799 98.4025 100.799 97.2442 101.955C96.0859 103.11 96.0859 104.984 97.2442 106.139C98.4025 107.295 100.28 107.295 101.439 106.139C102.597 104.984 102.597 103.11 101.439 101.955Z" fill="#AEBED2"/>
<path d="M102.093 101.301C100.574 99.7848 98.1094 99.7848 96.5895 101.301C95.0696 102.818 95.0696 105.276 96.5895 106.793C98.1094 108.309 100.574 108.309 102.093 106.793C103.613 105.276 103.613 102.818 102.093 101.301Z" stroke="#AEBED2"/>
</g>
<g filter="url(#filter2_d_1_47)">
<path d="M51.0167 101.955C49.8584 100.799 47.9805 100.799 46.8222 101.955C45.6639 103.11 45.6639 104.984 46.8222 106.139C47.9805 107.295 49.8584 107.295 51.0167 106.139C52.175 104.984 52.175 103.11 51.0167 101.955Z" fill="#AEBED2"/>
<path d="M51.6714 101.301C50.1516 99.7848 47.6873 99.7848 46.1675 101.301C44.6476 102.818 44.6476 105.276 46.1675 106.793C47.6873 108.309 50.1516 108.309 51.6714 106.793C53.1913 105.276 53.1913 102.818 51.6714 101.301Z" stroke="#AEBED2"/>
</g>
<path opacity="0.2" d="M59.9155 42.574C58.6488 41.3101 56.5949 41.3101 55.3282 42.574C54.0614 43.8379 54.0614 45.887 55.3282 47.1509C56.5949 48.4148 58.6488 48.4148 59.9155 47.1509C61.1823 45.887 61.1823 43.8379 59.9155 42.574Z" fill="#AEBED2" stroke="#AEBED2" stroke-width="0.3"/>
<path opacity="0.2" d="M92.9331 42.574C91.6664 41.3101 89.6125 41.3101 88.3458 42.574C87.079 43.8379 87.079 45.887 88.3458 47.1509C89.6125 48.4148 91.6664 48.4148 92.9331 47.1509C94.1999 45.887 94.1999 43.8379 92.9331 42.574Z" fill="#AEBED2" stroke="#AEBED2" stroke-width="0.3"/>
<path opacity="0.2" d="M109.515 131.859C108.248 130.595 106.194 130.595 104.928 131.859C103.661 133.123 103.661 135.172 104.928 136.436C106.194 137.7 108.248 137.7 109.515 136.436C110.782 135.172 110.782 133.123 109.515 131.859Z" fill="#AEBED2" stroke="#AEBED2" stroke-width="0.3"/>
<path opacity="0.2" d="M76.7381 131.351C75.4714 130.087 73.4175 130.087 72.1508 131.351C70.884 132.615 70.884 134.664 72.1508 135.928C73.4175 137.192 75.4714 137.192 76.7381 135.928C78.0049 134.664 78.0049 132.615 76.7381 131.351Z" fill="#AEBED2" stroke="#AEBED2" stroke-width="0.3"/>
<path opacity="0.2" d="M39.3498 131.859C38.083 130.595 36.0292 130.595 34.7624 131.859C33.4957 133.123 33.4957 135.172 34.7624 136.436C36.0292 137.7 38.083 137.7 39.3498 136.436C40.6166 135.172 40.6166 133.123 39.3498 131.859Z" fill="#AEBED2" stroke="#AEBED2" stroke-width="0.3"/>
<path d="M74.3848 18.1268C76.4104 18.1268 78.0524 16.4886 78.0524 14.4677C78.0524 12.4468 76.4104 10.8086 74.3848 10.8086C72.3594 10.8086 70.7174 12.4468 70.7174 14.4677C70.7174 16.4886 72.3594 18.1268 74.3848 18.1268Z" fill="#5472D3" stroke="#AEBED2" stroke-width="0.3"/>
<path d="M6.16746 136.496C8.19296 136.496 9.83493 134.857 9.83493 132.836C9.83493 130.816 8.19296 129.177 6.16746 129.177C4.14198 129.177 2.5 130.816 2.5 132.836C2.5 134.857 4.14198 136.496 6.16746 136.496Z" fill="#5472D3" stroke="#AEBED2" stroke-width="0.3"/>
<path d="M143.026 136.496C145.052 136.496 146.694 134.857 146.694 132.836C146.694 130.816 145.052 129.177 143.026 129.177C141.001 129.177 139.359 130.816 139.359 132.836C139.359 134.857 141.001 136.496 143.026 136.496Z" fill="#5472D3" stroke="#AEBED2" stroke-width="0.3"/>
<g filter="url(#filter3_d_1_47)">
<path d="M74.3881 102.626C72.5161 102.626 70.9985 104.14 70.9985 106.008C70.9985 107.876 72.5161 109.39 74.3881 109.39C76.2602 109.39 77.7778 107.876 77.7778 106.008C77.7778 104.14 76.2602 102.626 74.3881 102.626Z" fill="#AEBED2"/>
<path d="M74.3881 102.349C72.3626 102.349 70.7206 103.987 70.7206 106.008C70.7206 108.029 72.3626 109.667 74.3881 109.667C76.4135 109.667 78.0556 108.029 78.0556 106.008C78.0556 103.987 76.4135 102.349 74.3881 102.349Z" stroke="#AEBED2" stroke-width="0.3"/>
</g>
<g filter="url(#filter4_d_1_47)">
<path d="M59.5733 78.9522C57.7013 78.9522 56.1836 80.4664 56.1836 82.3342C56.1836 84.202 57.7013 85.7161 59.5733 85.7161C61.4454 85.7161 62.963 84.202 62.963 82.3342C62.963 80.4664 61.4454 78.9522 59.5733 78.9522Z" fill="#AEBED2"/>
<path d="M59.5733 78.6751C57.5478 78.6751 55.9057 80.3134 55.9057 82.3342C55.9057 84.3551 57.5478 85.9934 59.5733 85.9934C61.5987 85.9934 63.2407 84.3551 63.2407 82.3342C63.2407 80.3134 61.5987 78.6751 59.5733 78.6751Z" stroke="#AEBED2" stroke-width="0.3"/>
</g>
<g filter="url(#filter5_d_1_47)">
<path d="M89.6381 78.9522C87.7661 78.9522 86.2485 80.4664 86.2485 82.3342C86.2485 84.202 87.7661 85.7161 89.6381 85.7161C91.5102 85.7161 93.0278 84.202 93.0278 82.3342C93.0278 80.4664 91.5102 78.9522 89.6381 78.9522Z" fill="#AEBED2"/>
<path d="M89.6382 78.675C87.6127 78.675 85.9707 80.3133 85.9707 82.3341C85.9707 84.355 87.6127 85.9932 89.6382 85.9932C91.6636 85.9932 93.3056 84.355 93.3056 82.3341C93.3056 80.3133 91.6636 78.675 89.6382 78.675Z" stroke="#AEBED2" stroke-width="0.3"/>
</g>
<defs>
<filter id="filter0_d_1_47" x="65.9921" y="55.2355" width="16.785" height="16.765" filterUnits="userSpaceOnUse" color-interpolation-filters="sRGB">
<feFlood flood-opacity="0" result="BackgroundImageFix"/>
<feColorMatrix in="SourceAlpha" type="matrix" values="0 0 0 0 0 0 0 0 0 0 0 0 0 0 0 0 0 0 127 0" result="hardAlpha"/>
<feOffset dy="1"/>
<feGaussianBlur stdDeviation="2"/>
<feColorMatrix type="matrix" values="0 0 0 0 1 0 0 0 0 1 0 0 0 0 1 0 0 0 0.25 0"/>
<feBlend mode="normal" in2="BackgroundImageFix" result="effect1_dropShadow_1_47"/>
<feBlend mode="normal" in="SourceGraphic" in2="effect1_dropShadow_1_47" result="shape"/>
</filter>
<filter id="filter1_d_1_47" x="90.949" y="96.6645" width="16.785" height="16.7649" filterUnits="userSpaceOnUse" color-interpolation-filters="sRGB">
<feFlood flood-opacity="0" result="BackgroundImageFix"/>
<feColorMatrix in="SourceAlpha" type="matrix" values="0 0 0 0 0 0 0 0 0 0 0 0 0 0 0 0 0 0 127 0" result="hardAlpha"/>
<feOffset dy="1"/>
<feGaussianBlur stdDeviation="2"/>
<feColorMatrix type="matrix" values="0 0 0 0 1 0 0 0 0 1 0 0 0 0 1 0 0 0 0.25 0"/>
<feBlend mode="normal" in2="BackgroundImageFix" result="effect1_dropShadow_1_47"/>
<feBlend mode="normal" in="SourceGraphic" in2="effect1_dropShadow_1_47" result="shape"/>
</filter>
<filter id="filter2_d_1_47" x="40.527" y="96.6646" width="16.785" height="16.7649" filterUnits="userSpaceOnUse" color-interpolation-filters="sRGB">
<feFlood flood-opacity="0" result="BackgroundImageFix"/>
<feColorMatrix in="SourceAlpha" type="matrix" values="0 0 0 0 0 0 0 0 0 0 0 0 0 0 0 0 0 0 127 0" result="hardAlpha"/>
<feOffset dy="1"/>
<feGaussianBlur stdDeviation="2"/>
<feColorMatrix type="matrix" values="0 0 0 0 1 0 0 0 0 1 0 0 0 0 1 0 0 0 0.25 0"/>
<feBlend mode="normal" in2="BackgroundImageFix" result="effect1_dropShadow_1_47"/>
<feBlend mode="normal" in="SourceGraphic" in2="effect1_dropShadow_1_47" result="shape"/>
</filter>
<filter id="filter3_d_1_47" x="66.5705" y="99.1987" width="15.635" height="15.6183" filterUnits="userSpaceOnUse" color-interpolation-filters="sRGB">
<feFlood flood-opacity="0" result="BackgroundImageFix"/>
<feColorMatrix in="SourceAlpha" type="matrix" values="0 0 0 0 0 0 0 0 0 0 0 0 0 0 0 0 0 0 127 0" result="hardAlpha"/>
<feOffset dy="1"/>
<feGaussianBlur stdDeviation="2"/>
<feColorMatrix type="matrix" values="0 0 0 0 1 0 0 0 0 1 0 0 0 0 1 0 0 0 0.25 0"/>
<feBlend mode="normal" in2="BackgroundImageFix" result="effect1_dropShadow_1_47"/>
<feBlend mode="normal" in="SourceGraphic" in2="effect1_dropShadow_1_47" result="shape"/>
</filter>
<filter id="filter4_d_1_47" x="51.7557" y="75.5251" width="15.635" height="15.6183" filterUnits="userSpaceOnUse" color-interpolation-filters="sRGB">
<feFlood flood-opacity="0" result="BackgroundImageFix"/>
<feColorMatrix in="SourceAlpha" type="matrix" values="0 0 0 0 0 0 0 0 0 0 0 0 0 0 0 0 0 0 127 0" result="hardAlpha"/>
<feOffset dy="1"/>
<feGaussianBlur stdDeviation="2"/>
<feColorMatrix type="matrix" values="0 0 0 0 1 0 0 0 0 1 0 0 0 0 1 0 0 0 0.25 0"/>
<feBlend mode="normal" in2="BackgroundImageFix" result="effect1_dropShadow_1_47"/>
<feBlend mode="normal" in="SourceGraphic" in2="effect1_dropShadow_1_47" result="shape"/>
</filter>
<filter id="filter5_d_1_47" x="81.8207" y="75.525" width="15.6349" height="15.6182" filterUnits="userSpaceOnUse" color-interpolation-filters="sRGB">
<feFlood flood-opacity="0" result="BackgroundImageFix"/>
<feColorMatrix in="SourceAlpha" type="matrix" values="0 0 0 0 0 0 0 0 0 0 0 0 0 0 0 0 0 0 127 0" result="hardAlpha"/>
<feOffset dy="1"/>
<feGaussianBlur stdDeviation="2"/>
<feColorMatrix type="matrix" values="0 0 0 0 1 0 0 0 0 1 0 0 0 0 1 0 0 0 0.25 0"/>
<feBlend mode="normal" in2="BackgroundImageFix" result="effect1_dropShadow_1_47"/>
<feBlend mode="normal" in="SourceGraphic" in2="effect1_dropShadow_1_47" result="shape"/>
</filter>
</defs>
</svg>
